<?xml version="1.0" standalone="no"?>
<!DOCTYPE svg PUBLIC "-//W3C//DTD SVG 20010904//EN"
 "http://www.w3.org/TR/2001/REC-SVG-20010904/DTD/svg10.dtd">
<svg version="1.0" xmlns="http://www.w3.org/2000/svg"
 width="696.000000pt" height="696.000000pt" viewBox="0 0 696.000000 696.000000"
 preserveAspectRatio="xMidYMid meet">
<metadata>
Created by potrace 1.14, written by Peter Selinger 2001-2017
</metadata>
<g transform="translate(0.000000,696.000000) scale(0.100000,-0.100000)"
fill="#000000" stroke="none">
<path d="M5130 5458 l0 -1263 -47 55 c-337 394 -756 659 -1218 771 -314 75
-733 80 -1065 10 -406 -85 -804 -309 -1119 -630 -405 -412 -622 -862 -691
-1431 -13 -112 -13 -450 0 -576 68 -624 381 -1182 900 -1601 262 -211 594
-371 911 -438 571 -121 1207 -37 1709 227 221 117 403 252 618 462 109 106
142 145 181 215 212 377 343 736 396 1090 13 88 15 384 15 2236 l0 2135 -295
0 -295 0 0 -1262z m-1528 -933 c605 -80 1132 -454 1384 -982 137 -287 198
-625 174 -967 -19 -265 -73 -478 -175 -694 -204 -426 -594 -775 -1030 -921
-299 -100 -676 -119 -980 -49 -610 140 -1101 594 -1306 1208 -152 459 -121
939 90 1375 107 222 220 383 377 537 275 269 613 439 984 493 117 17 353 18
482 0z"/>
</g>
</svg>
